<svg width="1887" height="500" viewBox="0 0 1887 500" fill="none" xmlns="http://www.w3.org/2000/svg">
<path d="M265.89 0C268.64 0.491446 271.025 1.24808 273.452 1.43148C289.71 2.65967 305.596 5.77402 321.242 10.3093C336.512 14.7355 351.168 20.6929 365.191 28.1077C379.354 35.596 392.826 44.2224 405.169 54.4977C412.329 60.4575 419.387 66.5393 426.207 72.3254C415.636 82.8975 405.335 93.2003 394.82 103.717C389.177 99.2836 383.135 94.309 376.859 89.6487C361.172 78.0006 344.389 68.2651 326.496 60.3209C312.152 53.9522 297.248 49.555 281.929 46.6785C267.998 44.0626 253.776 43.3495 239.664 44.3912C220.429 45.8111 201.674 49.9545 183.546 56.7485C161.48 65.0182 140.528 75.4458 122.063 90.1646C112.513 97.7778 103.419 106.126 95.052 115.02C85.3129 125.372 77.4252 137.236 70.7153 149.853C61.7128 166.782 54.8452 184.476 50.7161 203.21C49.245 209.885 47.8335 216.573 46.4806 223.272C46.2481 224.423 46.4477 225.662 46.4477 227.174C48.0825 227.174 49.4058 227.174 50.7291 227.174C84.162 227.174 117.595 227.117 151.028 227.236C155.924 227.254 157.089 226.808 157.085 221.195C157.064 186.164 157.127 151.133 156.995 116.103C156.981 112.466 157.795 111.202 161.65 111.282C173.69 111.532 185.743 111.558 197.782 111.27C201.742 111.175 202.517 113.158 202.792 116.197C202.859 116.928 202.804 117.671 202.804 118.408C202.804 206.17 202.804 293.931 202.804 381.692C202.804 387.763 201.875 388.703 195.895 388.703C184.71 388.703 173.525 388.715 162.339 388.697C157.733 388.69 157.075 388.005 157.075 383.418C157.073 348.879 157.074 314.34 157.074 279.801C157.074 272.477 156.756 272.166 149.183 272.166C114.275 272.165 79.3667 272.166 44.4588 272.166C31.4298 272.166 18.3999 272.086 5.37228 272.219C1.86201 272.255 0.656786 270.977 0.64094 267.487C0.603755 259.301 -0.236127 251.1 0.0650899 242.936C0.675424 226.391 2.5082 209.985 6.27121 193.782C11.1614 172.726 18.685 152.713 28.7329 133.627C36.028 119.77 44.2276 106.422 54.317 94.4451C62.7145 84.4766 71.4326 74.6712 80.8972 65.7346C93.9726 53.3887 108.663 43.028 124.264 33.9748C141.579 23.9274 159.638 15.5201 178.944 10.2891C191.532 6.87839 204.484 4.79769 217.297 2.24373C221.19 1.4679 225.164 1.10069 229.228 0.273166C241.419 2.17617e-06 253.482 2.21273e-06 265.89 0Z" fill="#00A0E3"/>
<path d="M363.781 381.08C365.597 383.574 367.255 385.843 369.344 388.703C365.697 388.703 362.8 388.703 359.903 388.703C345.889 388.703 331.871 388.508 317.865 388.82C313.601 388.915 310.746 387.183 308.606 384.149C294.236 363.771 279.977 343.315 265.723 322.855C251.746 302.794 237.817 282.701 223.869 262.62C221.558 259.291 219.074 256.064 217.019 252.583C215.682 250.32 216.164 247.958 217.789 245.671C225.324 235.072 232.75 224.396 240.177 213.721C254.142 193.652 268.039 173.536 282.046 153.496C290.936 140.778 300.045 128.212 308.892 115.463C311.165 112.187 314.183 110.712 317.848 110.685C333.091 110.571 348.334 110.601 363.577 110.704C364.82 110.712 366.057 111.667 367.297 112.182C366.805 113.344 366.49 114.625 365.796 115.65C353.955 133.106 342.144 150.582 330.17 167.947C316.636 187.572 302.947 207.091 288.964 227.174C290.67 227.174 291.938 227.174 293.205 227.174C360.078 227.174 426.95 227.174 493.823 227.174C498.536 227.174 499.268 227.803 499.291 232.564C499.348 243.996 500.119 255.5 499.103 266.842C497.856 280.769 495.544 294.65 492.861 308.388C488.993 328.204 481.531 346.816 472.161 364.676C464.43 379.413 455.477 393.357 444.669 406.01C437.409 414.508 430.139 423.1 422 430.718C412.518 439.593 402.551 448.118 391.933 455.566C381.066 463.189 369.489 469.987 357.622 475.953C340.286 484.67 321.863 490.739 302.705 494.106C291.841 496.015 280.856 497.297 269.889 498.545C262.788 499.352 255.608 500.161 248.489 499.973C224.176 499.331 200.156 496.718 176.76 489.343C155.878 482.759 136.039 474.079 117.874 461.891C107.461 454.904 97.4929 447.238 87.5055 439.639C83.0822 436.274 79.1257 432.298 74.9192 428.644C73.3476 427.278 73.4396 426.178 74.9083 424.72C84.762 414.939 94.552 405.093 104.348 395.283C111.947 401.166 119.283 407.156 126.938 412.705C141.234 423.068 156.263 432.26 172.714 438.824C181.945 442.508 191.281 446.067 200.824 448.789C208.817 451.069 217.123 452.581 225.394 453.474C235.293 454.543 245.311 455.115 255.263 454.961C269.568 454.738 283.613 452.187 297.462 448.492C313.466 444.223 328.764 438.148 343.503 430.709C357.584 423.601 371.098 415.506 383.006 405.03C388.941 399.81 395.041 394.707 400.434 388.958C410.865 377.84 419.708 365.528 427.238 352.197C435.18 338.14 441.184 323.339 445.51 307.876C448.39 297.582 450.447 287.055 452.809 276.618C453.045 275.573 452.84 274.428 452.84 273.117C398.497 273.117 344.26 273.117 289.575 273.117C294.299 280.066 298.799 286.736 303.351 293.371C314.144 309.102 324.951 324.825 335.774 340.535C345.041 353.987 354.339 367.417 363.781 381.08Z" fill="#1C1B17"/>
<path d="M825 339.581C823.671 338.142 822.927 336.497 821.729 335.297C812.24 325.795 802.606 316.435 793.186 306.869C791.863 305.526 790.735 303.302 790.73 301.482C790.598 255.13 790.627 208.777 790.636 162.425C790.636 161.952 790.742 161.478 790.831 160.725C802.93 160.725 815 160.725 827.625 160.725C827.625 220.017 827.625 279.335 827.625 339.117C826.875 339.581 826.125 339.581 825 339.581Z" fill="#1C1B17"/>
<path d="M618.625 160.903C630.434 160.439 642.243 160.439 654.338 160.439C654.338 208.914 654.338 257.148 654.338 305.93C642.767 305.93 631.165 305.93 619.094 305.93C618.625 257.743 618.625 209.555 618.625 160.903Z" fill="#1C1B17"/>
<path d="M1000.67 162.532C990.018 173.18 979.427 183.886 968.637 194.393C967.459 195.54 965.143 195.986 963.35 196C947.184 196.119 930.994 196.617 914.859 195.919C898.01 195.189 880.889 211.476 878.356 226.798C875.2 245.899 887.573 264.923 905.348 269.494C909.086 270.455 913.006 271.192 916.847 271.212C944.511 271.356 972.177 271.289 1000.77 271.289C999.417 273.16 998.558 274.754 997.328 275.986C988.076 285.254 978.815 294.516 969.376 303.595C968.035 304.885 965.72 305.814 963.846 305.831C945.682 305.996 927.491 306.507 909.357 305.75C894.561 305.132 881.233 299.786 869.366 290.508C853.758 278.304 844.229 262.459 841.929 243.375C839.33 221.802 844.307 201.752 859.999 185.198C870.273 174.36 881.927 165.981 896.802 162.87C902.838 161.608 909.057 160.598 915.201 160.546C943.365 160.308 971.532 160.449 1000.16 160.85C1000.64 161.675 1000.65 162.103 1000.67 162.532Z" fill="#1C1B17"/>
<path d="M693.376 198.792C705.636 186.647 717.619 174.721 729.703 162.897C730.874 161.752 732.672 160.563 734.193 160.545C749.143 160.371 764.097 160.44 778.633 160.44C754.53 184.28 730.342 208.203 705.894 232.384C730.96 257.163 755.227 281.152 780.288 305.926C763.565 305.926 747.986 305.954 732.407 305.859C731.447 305.853 730.308 305.053 729.562 304.316C705.868 280.918 682.213 257.482 658.145 233.648C669.882 222.035 681.504 210.537 693.376 198.792Z" fill="#1C1B17"/>
<path d="M1044.87 192.853C1034.17 182.307 1023.71 172.009 1012.51 160.978C1014.7 160.701 1015.74 160.458 1016.78 160.456C1030.43 160.431 1044.09 160.355 1057.75 160.537C1059.63 160.562 1061.98 161.42 1063.3 162.71C1087.09 186.021 1110.76 209.457 1134.71 233.128C1127.48 240.275 1120.35 247.316 1113.23 254.364C1096.74 270.681 1080.26 287.015 1063.73 303.294C1062.63 304.376 1061.14 305.798 1059.82 305.813C1044.58 305.991 1029.34 305.926 1013.54 305.926C1038.02 281.722 1061.99 258.017 1086.37 233.913C1072.37 220.055 1058.74 206.578 1044.87 192.853Z" fill="#1C1B17"/>
<path d="M1173.63 231.7C1173.63 256.578 1173.63 280.961 1173.63 305.637C1161.67 305.637 1149.94 305.637 1137.91 305.637C1137.91 257.472 1137.91 209.25 1137.91 160.733C1149.58 160.733 1161.31 160.733 1173.63 160.733C1173.63 184.182 1173.63 207.694 1173.63 231.7Z" fill="#1C1B17"/>
<path d="M1494.5 339.603C1494.13 291.966 1494.13 244.33 1494.13 196.092C1491.88 196.092 1489.95 196.092 1488.01 196.092C1433.69 196.092 1379.36 196.092 1325.04 196.092C1316.08 196.092 1310.97 202.956 1313.44 211.671C1315.74 219.795 1317.15 220.835 1325.88 220.836C1347.71 220.836 1369.54 220.897 1391.37 220.818C1412.14 220.743 1429.69 234.619 1433.91 254.208C1438.91 277.431 1424.51 299.998 1401.22 304.92C1398.2 305.559 1395.05 305.9 1391.96 305.909C1365.47 305.985 1338.97 305.992 1312.48 305.87C1310.55 305.861 1308.11 305.209 1306.79 303.947C1295.92 293.491 1285.26 282.82 1273.62 271.312C1276.23 271.312 1277.91 271.312 1279.58 271.312C1314.57 271.312 1349.57 271.312 1384.56 271.312C1396.09 271.312 1402.24 260.785 1396.69 250.603C1394.7 246.944 1391.84 245.466 1387.51 245.498C1364.35 245.67 1341.18 245.423 1318.02 245.624C1296.51 245.811 1277.51 226.376 1276.87 204.885C1276.26 184.617 1290.9 166.317 1308.75 162.271C1312.23 161.482 1315.78 160.568 1319.31 160.542C1341.14 160.383 1362.97 160.334 1384.8 160.5C1404.73 160.652 1424.66 161.442 1444.59 161.397C1534.67 161.192 1624.76 160.791 1714.84 160.463C1716.67 160.456 1718.5 160.462 1721.06 160.462C1716.28 165.737 1711.98 170.741 1707.4 175.473C1701.52 181.542 1695.55 187.541 1689.31 193.24C1687.6 194.799 1684.79 195.968 1682.48 195.975C1633.99 196.13 1585.5 196.092 1537.01 196.092C1535.21 196.092 1533.41 196.092 1531.13 196.092C1531.13 198.265 1531.13 200.028 1531.13 201.792C1531.13 234.613 1531.19 267.434 1531 300.254C1530.98 302.669 1529.68 305.627 1527.97 307.388C1518.87 316.8 1509.45 325.898 1500.17 335.144C1499.04 336.275 1498.14 337.645 1497.13 339.254C1496.38 339.603 1495.63 339.603 1494.5 339.603Z" fill="#00A0E3"/>
<path d="M1886.05 221.361C1885.39 222.657 1884.3 223.413 1884.13 224.333C1881.31 239.84 1861.89 256.423 1843.57 255.726C1817.67 254.741 1791.7 255.476 1764.59 255.476C1773.09 247.061 1780.82 239.277 1788.77 231.707C1789.73 230.791 1791.81 230.779 1793.38 230.772C1808.2 230.706 1823.03 230.548 1837.84 230.819C1844.32 230.937 1847.1 230.347 1848.3 222.705C1849.39 215.676 1848.33 208.189 1847.34 201.025C1846.84 197.457 1843.6 195.962 1839.46 195.997C1815.98 196.194 1792.49 196.092 1769.01 196.092C1767.55 196.092 1766.08 196.092 1764.05 196.092C1764.05 243.858 1764.05 291.267 1764.05 339.14C1763.61 339.604 1763.17 339.604 1762.39 339.604C1751.56 329.059 1741.02 318.565 1730.64 307.906C1729.32 306.544 1728.17 304.326 1728.16 302.501C1728.03 255.866 1728.06 209.231 1728.07 162.596C1728.07 162.115 1728.18 161.634 1728.32 160.462C1730.02 160.462 1731.78 160.462 1733.53 160.462C1768.99 160.462 1804.46 160.503 1839.92 160.446C1860.23 160.413 1878.26 171.456 1884.1 191.87C1884.31 192.601 1884.93 193.219 1885.7 194.001C1886.05 194.113 1886.05 194.608 1885.72 194.981C1885.6 196.589 1885.83 197.825 1886.05 199.061C1886.05 206.34 1886.05 213.619 1886.05 221.361Z" fill="#00A0E3"/>
<path d="M1706.07 223.805C1709.65 223.805 1712.75 223.805 1717.32 223.805C1715.1 226.145 1713.86 227.535 1712.53 228.845C1705.93 235.365 1700.37 244.38 1692.41 247.665C1684.45 250.947 1674.07 248.519 1664.75 248.541C1652.11 248.57 1639.46 248.548 1626.48 248.548C1626.48 256.411 1626.48 264.054 1626.48 272.095C1656.18 272.095 1685.92 272.095 1716.53 272.095C1715.6 273.625 1715.23 274.631 1714.54 275.32C1704.56 285.253 1694.57 295.177 1684.47 304.992C1683.43 306.007 1681.68 306.856 1680.25 306.861C1650.79 306.968 1621.32 306.942 1591.49 306.942C1591.49 279.317 1591.49 251.891 1591.49 223.805C1629.45 223.805 1667.52 223.805 1706.07 223.805Z" fill="#00A0E3"/>
</svg>
